<?xml version="1.0" standalone="no"?><!-- Generator: Adobe Fireworks CS5.1, Export SVG Extension by Aaron Beall (http://fireworks.abeall.com) . Version: 0.6.1  --><!DOCTYPE svg PUBLIC "-//W3C//DTD SVG 1.1//EN" "http://www.w3.org/Graphics/SVG/1.1/DTD/svg11.dtd"><svg id="logo-Page%201" viewBox="0 0 410 410" style="background-color:#ffffff00" version="1.1"	xmlns="http://www.w3.org/2000/svg" xmlns:xlink="http://www.w3.org/1999/xlink" xml:space="preserve"	x="0px" y="0px" width="410px" height="410px">	<g id="Layer%201">		<path id="Ellipse" d="M 4 205 C 4 93.9893 93.9893 4 205 4 C 316.0107 4 406 93.9893 406 205 C 406 316.0107 316.0107 406 205 406 C 93.9893 406 4 316.0107 4 205 Z" fill="#ffda47"/>		<g>			<path d="M 118.5409 175.839 C 121.0209 175.919 122.781 175.919 123.821 175.919 C 126.621 175.919 126.621 175.919 128.7011 176.159 L 128.7011 166.3188 C 125.341 166.7188 124.381 166.7988 118.6209 166.7988 C 85.9801 166.7988 85.9801 166.7988 83.6601 166.8788 C 84.6201 164.8788 85.4201 163.1187 86.0601 161.6787 C 88.4602 156.0786 88.4602 156.0786 89.1002 154.7986 L 78.7 152.3185 C 78.0599 155.8386 77.0999 158.7986 74.6999 163.7588 C 70.4598 172.879 65.1796 179.7591 57.8195 185.7593 C 61.6596 187.8393 62.9396 188.7993 65.9797 192.0794 C 71.7398 186.7993 74.6199 183.2792 79.26 175.839 L 98.4604 175.839 C 97.6604 189.4393 94.3003 197.6795 87.0201 204.1597 C 82.3 208.3198 77.6599 210.9598 70.7798 213.3599 C 74.2198 216.48 75.4199 218.08 77.4199 222.1601 C 87.3401 217.6 93.1003 213.5199 98.2204 207.5198 C 104.5405 199.9996 107.5006 191.5194 108.5406 177.9191 C 108.6206 176.6391 108.6206 176.6391 108.7006 175.839 L 118.5409 175.839 L 118.5409 175.839 Z" fill="#ffffff"/>			<path d="M 144.5 155.4386 C 144.8201 157.5986 144.8201 158.3186 144.8201 162.7187 C 144.8201 185.1192 142.98 195.4395 137.2199 204.6397 C 134.8198 208.4798 132.8998 210.6398 128.9797 213.8399 C 132.7398 216.4 133.9398 217.6 137.0599 221.6001 C 142.34 216.4 145.3801 212.3199 148.1001 206.7997 C 152.2602 198.5596 154.0203 189.5193 154.5803 173.919 C 155.0603 158.2386 155.0603 158.2386 155.3803 155.9986 L 144.5 155.4386 L 144.5 155.4386 ZM 165.7005 154.8786 C 165.9405 156.3986 166.0205 158.1586 166.0205 160.1587 L 166.0205 162.5587 L 165.6205 207.6798 C 165.5405 212.0799 165.4605 213.8399 164.9005 216.16 L 170.0206 221.6001 C 171.0607 221.1201 171.7007 220.8001 173.4607 220.16 C 181.7809 216.88 185.941 214.4799 190.5011 210.5598 C 195.7812 205.8397 199.9413 199.8396 203.2214 191.9194 C 199.5413 189.0393 198.5013 187.9993 195.7012 184.3992 C 193.8612 190.3194 191.5411 194.7195 187.861 199.0396 C 184.421 203.1197 181.2209 205.5197 175.6208 208.1598 L 176.0208 162.6387 C 176.1008 158.7186 176.1808 157.3586 176.5808 155.0386 L 165.7005 154.8786 L 165.7005 154.8786 Z" fill="#ffffff"/>			<path d="M 225.1006 163.2789 C 225.1006 159.5988 225.1806 157.9188 225.5006 155.8388 L 214.7803 155.8388 C 215.1004 157.9988 215.1004 159.1188 215.1004 163.1989 L 215.1804 200.3198 C 215.1804 204.9599 215.2604 206.3199 215.4204 207.6799 C 215.9004 211.5513 217.1004 214.0342 219.3405 215.6636 C 222.4605 217.9913 227.9807 219 237.9809 219 C 243.981 219 253.9812 218.4569 260.3814 217.8361 C 266.1415 217.293 266.7015 217.2154 268.3016 217.2154 L 267.8216 206.7999 C 264.3015 207.84 262.5414 208.24 258.7014 208.72 C 252.8612 209.52 245.5011 210 240.1409 210 C 232.3808 210 227.8206 209.36 226.4606 207.92 C 225.3406 206.7999 225.0206 204.9599 225.0206 200.3198 L 225.0206 199.2798 C 225.1006 199.1198 225.1006 199.0397 225.1006 199.0397 L 225.1006 188.7195 C 239.3409 185.9194 249.5811 182.5594 260.8614 176.8792 C 265.2615 174.7192 265.5815 174.5592 266.4615 174.2392 L 260.0614 165.199 C 253.9812 170.4791 238.4609 176.7192 225.1006 179.4393 L 225.1006 163.2789 L 225.1006 163.2789 ZM 257.5013 156.5588 C 260.3814 159.6788 262.4614 162.6389 264.9415 167.199 L 270.9417 163.8389 C 268.2216 158.8788 266.7816 156.7988 263.4214 153.2787 L 257.5013 156.5588 L 257.5013 156.5588 ZM 279.5018 158.7188 C 277.1018 154.5587 275.2617 151.9987 272.0616 148.7186 L 266.3015 151.8387 C 269.2616 155.1187 271.2617 157.9988 273.5817 162.1589 L 279.5018 158.7188 L 279.5018 158.7188 Z" fill="#ffffff"/>			<path d="M 285.7011 166.6388 C 293.1413 170.7989 299.7015 176.079 306.1016 182.8792 L 312.9818 174.159 C 306.8216 168.3189 301.8615 164.6388 292.3413 158.7186 L 285.7011 166.6388 L 285.7011 166.6388 ZM 288.5012 219.44 C 290.3412 218.8 290.5812 218.72 293.7813 218.08 C 306.1816 215.4399 316.1018 211.5199 324.262 206.0797 C 335.2223 198.7996 342.8224 189.3593 349.6226 174.719 C 345.5425 171.8389 344.2625 170.6389 341.1424 166.8788 C 338.7424 173.359 336.5023 177.7591 332.9822 182.8792 C 326.6621 191.9994 319.2219 198.1595 309.2217 202.4796 C 301.9415 205.6797 292.4213 207.9998 285.5411 208.3998 L 288.5012 219.44 L 288.5012 219.44 Z" fill="#ffffff"/>		</g>		<g>			<path d="M 82.7969 230 L 82.7969 267 L 87.2813 267 L 87.2813 255 L 88.5313 255 C 89.0313 255 89.4063 255.0625 89.6563 255.1719 C 89.9063 255.2813 90.1563 255.5 90.4063 255.8438 L 98.7188 266.125 C 98.9531 266.4375 99.2031 266.6563 99.4531 266.7969 C 99.7031 266.9375 100.0313 267 100.4063 267 L 104.4063 267 L 94.5 254.3438 C 94.2813 254.0156 94.0469 253.7188 93.8125 253.4531 C 93.5625 253.1875 93.2969 252.9531 93 252.75 C 93.2813 252.5781 93.5313 252.375 93.75 252.1563 C 93.9688 251.9375 94.2031 251.6719 94.4531 251.3594 L 103.7813 241 L 99.7188 241 C 99.2969 241 98.9688 241.0938 98.7188 241.2656 C 98.4688 241.4375 98.2188 241.6563 97.9688 241.9219 L 89.9688 250.7813 C 89.7031 251.0781 89.4688 251.2656 89.25 251.3594 C 89.0313 251.4531 88.75 251.5 88.4219 251.5 L 87.2813 251.5 L 87.2813 230 L 82.7969 230 L 82.7969 230 Z" fill="#ffffff"/>			<path d="M 112.7188 241.9688 C 111.25 242.6094 110.0156 243.4844 109 244.6094 C 107.9688 245.7344 107.1875 247.0469 106.6563 248.5781 C 106.1094 250.1094 105.8438 251.7656 105.8438 253.5156 C 105.8438 255.7031 106.1406 257.625 106.75 259.2969 C 107.3438 260.9844 108.1875 262.3906 109.2656 263.5313 C 110.3281 264.6719 111.6094 265.5313 113.0781 266.125 C 114.5469 266.7188 116.1719 267 117.9219 267 C 118.8281 267 119.75 266.9219 120.6875 266.7656 C 121.625 266.6094 122.5313 266.375 123.4063 266.0625 C 124.2813 265.75 125.0938 265.3438 125.875 264.8438 C 126.6406 264.3594 127.2969 263.7813 127.8438 263.1094 L 126.5938 261.4688 C 126.3906 261.1875 126.1094 261.0313 125.75 261.0313 C 125.4688 261.0313 125.125 261.1719 124.7344 261.4219 C 124.3438 261.6875 123.8594 261.9688 123.2813 262.2656 C 122.6875 262.5781 122 262.8594 121.1875 263.1094 C 120.375 263.375 119.4063 263.5 118.2969 263.5 C 117.0938 263.5 116.0156 263.3125 115.0469 262.9063 C 114.0781 262.5156 113.2344 261.9219 112.5469 261.1094 C 111.8438 260.2969 111.2969 259.2969 110.8906 258.0938 C 110.4844 256.8906 110.2813 255.4688 110.25 253.8438 L 127.0938 253.8438 C 127.5 253.8438 127.7813 253.7344 127.9375 253.5 C 128.0938 253.2813 128.1719 252.8125 128.1719 252.125 C 128.1719 250.3594 127.9063 248.7813 127.375 247.4063 C 126.8438 246.0313 126.125 244.8594 125.1875 243.9219 C 124.25 242.9844 123.1563 242.25 121.875 241.75 C 120.5938 241.25 119.1875 241 117.6719 241 C 115.8281 241 114.1875 241.3281 112.7188 241.9688 L 112.7188 241.9688 ZM 120.4844 244.9844 C 121.2656 245.2969 121.9375 245.75 122.5 246.3281 C 123.0469 246.9063 123.4688 247.5938 123.75 248.375 C 124.0313 249.1719 124.1719 250.0469 124.1719 251 L 110.4063 251 C 110.6875 248.9688 111.4531 247.3906 112.6875 246.2344 C 113.9219 245.0781 115.625 244.5 117.7813 244.5 C 118.7813 244.5 119.6875 244.6719 120.4844 244.9844 L 120.4844 244.9844 Z" fill="#ffffff"/>			<path d="M 134.1563 230 L 134.1563 267 L 138.5938 267 L 138.5938 230 L 134.1563 230 L 134.1563 230 Z" fill="#ffffff"/>			<path d="M 153.7813 267 L 157.7969 267 L 168.125 241 L 164.6563 241 C 164.3125 241 164.0313 241.0938 163.8125 241.2656 C 163.5781 241.4531 163.4219 241.6719 163.3281 241.9531 L 156.8281 258.6719 C 156.5781 259.2969 156.3906 259.9063 156.25 260.5313 C 156.0938 261.1563 155.9531 261.75 155.8281 262.3438 C 155.7031 261.75 155.5781 261.1563 155.4531 260.5313 C 155.3125 259.9063 155.125 259.2969 154.9063 258.6719 L 148.4688 241.9531 C 148.375 241.7031 148.2031 241.4688 147.9688 241.2813 C 147.7344 241.0938 147.4375 241 147.0938 241 L 143.4531 241 L 153.7813 267 L 153.7813 267 Z" fill="#ffffff"/>			<path d="M 173.1563 241 L 173.1563 267 L 177.5938 267 L 177.5938 241 L 173.1563 241 L 173.1563 241 ZM 178.3281 231.8594 C 178.1563 231.4844 177.9219 231.1719 177.6406 230.8906 C 177.3438 230.6094 177 230.3906 176.625 230.2344 C 176.2344 230.0781 175.8281 230 175.4063 230 C 174.9688 230 174.5625 230.0781 174.1875 230.2344 C 173.8125 230.3906 173.4688 230.6094 173.1875 230.8906 C 172.8906 231.1719 172.6563 231.4844 172.5 231.8594 C 172.3281 232.2344 172.25 232.625 172.25 233.0313 C 172.25 233.4375 172.3281 233.8281 172.5 234.1719 C 172.6563 234.5313 172.8906 234.8438 173.1875 235.125 C 173.4688 235.4063 173.8125 235.6094 174.1875 235.7656 C 174.5625 235.9219 174.9688 236 175.4063 236 C 175.8281 236 176.2344 235.9219 176.625 235.7656 C 177 235.6094 177.3438 235.4063 177.6406 235.125 C 177.9219 234.8438 178.1563 234.5313 178.3281 234.1719 C 178.5 233.8281 178.5938 233.4375 178.5938 233.0313 C 178.5938 232.625 178.5 232.2344 178.3281 231.8594 L 178.3281 231.8594 Z" fill="#ffffff"/>			<path d="M 190.0938 267 L 190.0938 248.1406 C 191.0625 247.0313 192.1094 246.1406 193.25 245.4844 C 194.3906 244.8281 195.625 244.5 196.9531 244.5 C 198.75 244.5 200.0938 245.0469 200.9688 246.1094 C 201.8438 247.1875 202.2813 248.7031 202.2813 250.6406 L 202.2813 267 L 206.7188 267 L 206.7188 250.7031 C 206.7188 249.2656 206.5313 247.9375 206.1719 246.7344 C 205.7969 245.5469 205.2656 244.5156 204.5625 243.6719 C 203.8438 242.8281 202.9688 242.1719 201.9063 241.7031 C 200.8438 241.2344 199.625 241 198.25 241 C 196.4688 241 194.8906 241.3906 193.5313 242.1406 C 192.1719 242.8906 190.9375 243.8906 189.8438 245.1094 L 189.5 242.0313 C 189.3281 241.3438 188.9219 241 188.2969 241 L 185.6563 241 L 185.6563 267 L 190.0938 267 L 190.0938 267 Z" fill="#ffffff"/>			<path d="M 224.6719 265.4219 C 225.75 265.0313 226.6719 264.5 227.4531 263.8125 L 226.1563 261.7031 C 225.9688 261.4219 225.75 261.2813 225.5313 261.2813 C 225.3906 261.2813 225.2344 261.3438 225.0625 261.4688 C 224.875 261.5938 224.6719 261.7344 224.4219 261.8906 C 224.1719 262.0469 223.875 262.1875 223.5313 262.3125 C 223.1875 262.4375 222.7969 262.5 222.3281 262.5 C 221.5 262.5 220.8281 262.25 220.3125 261.7188 C 219.7969 261.2031 219.5469 260.4063 219.5469 259.3281 L 219.5469 244 L 226.7969 244 L 226.7969 240.5 L 219.5469 240.5 L 219.5469 231.5 L 217.2969 231.5 C 217.0156 231.5 216.7813 231.5938 216.5938 231.75 C 216.4063 231.9219 216.3125 232.125 216.2813 232.375 L 215.25 240.5 L 211.0938 241.0469 L 211.0938 242.9531 C 211.0938 243.3125 211.1875 243.5781 211.375 243.75 C 211.5625 243.9219 211.7813 244 212.0469 244 L 215.0938 244 L 215.0938 259.5 C 215.0938 261.6094 215.625 263.2188 216.7031 264.3281 C 217.7813 265.4531 219.3281 266 221.3281 266 C 222.4688 266 223.5781 265.8125 224.6719 265.4219 L 224.6719 265.4219 Z" fill="#ffffff"/>			<path d="M 251.25 250.6563 C 251.25 249.2344 251.0469 247.9219 250.6719 246.7344 C 250.2813 245.5469 249.7188 244.5156 248.9688 243.6719 C 248.2188 242.8281 247.2813 242.1719 246.1875 241.7031 C 245.0938 241.2344 243.8281 241 242.4219 241 C 240.4531 241 238.6563 241.3281 237.0469 241.9688 C 235.4219 242.625 233.9219 243.5938 232.5313 244.9063 L 233.3281 246.2656 C 233.4531 246.4844 233.6406 246.6719 233.8594 246.8281 C 234.0781 246.9844 234.3438 247.0469 234.6563 247.0469 C 235.0313 247.0469 235.4063 246.9219 235.8125 246.6563 C 236.2031 246.4063 236.6719 246.1094 237.2188 245.7813 C 237.75 245.4531 238.3906 245.1563 239.1406 244.8906 C 239.875 244.6406 240.7813 244.5 241.875 244.5 C 243.5156 244.5 244.7656 244.9844 245.6094 245.9531 C 246.4531 246.9219 246.875 248.3594 246.875 250.25 L 246.875 252.1406 C 244 252.1406 241.5781 252.375 239.5938 252.8438 C 237.6094 253.3125 236 253.9219 234.7813 254.6563 C 233.5625 255.3906 232.6719 256.2344 232.125 257.1719 C 231.5625 258.1094 231.2969 259.0938 231.2969 260.125 C 231.2969 261.3125 231.4844 262.3281 231.8594 263.1875 C 232.2344 264.0469 232.7344 264.75 233.375 265.3125 C 234 265.875 234.75 266.2969 235.6094 266.5781 C 236.4688 266.8594 237.3906 267 238.375 267 C 239.3438 267 240.2188 266.9219 241.0156 266.7344 C 241.7969 266.5469 242.5469 266.2813 243.25 265.9219 C 243.9375 265.5625 244.6094 265.125 245.25 264.5938 C 245.875 264.0625 246.5313 263.4688 247.2031 262.8125 L 247.7031 265.7031 C 247.7813 266.2344 247.9531 266.5938 248.2188 266.75 C 248.4844 266.9219 248.8438 267 249.2813 267 L 251.25 267 L 251.25 250.6563 L 251.25 250.6563 ZM 238.0781 263.2969 C 237.5781 263.1563 237.1406 262.9375 236.7656 262.625 C 236.3906 262.3125 236.1094 261.9219 235.8906 261.4375 C 235.6719 260.9688 235.5781 260.3906 235.5781 259.7344 C 235.5781 259.0469 235.7813 258.4063 236.1875 257.8438 C 236.5938 257.2813 237.2344 256.7969 238.1406 256.3906 C 239.0469 255.9844 240.2031 255.6406 241.6406 255.3906 C 243.0781 255.1406 244.8125 255 246.875 255 L 246.875 260.1563 C 246.375 260.6875 245.8594 261.1563 245.3281 261.5625 C 244.7969 261.9688 244.25 262.3281 243.6875 262.6094 C 243.1094 262.8906 242.5 263.1094 241.8438 263.2656 C 241.1875 263.4219 240.4844 263.5 239.7031 263.5 C 239.1094 263.5 238.5781 263.4375 238.0781 263.2969 L 238.0781 263.2969 Z" fill="#ffffff"/>			<path d="M 279.2031 241 L 275.6563 241 C 275.3594 241 275.0938 241.0938 274.8594 241.2813 C 274.6094 241.4688 274.4375 241.6875 274.3438 241.9531 L 267.7813 258.5 C 267.625 258.9063 267.4844 259.2969 267.375 259.6719 C 267.25 260.0469 267.1406 260.4375 267.0313 260.8281 C 266.9375 260.4375 266.8438 260.0469 266.7344 259.6719 C 266.625 259.2969 266.5 258.9063 266.3438 258.5156 L 259.5781 241.9531 C 259.4688 241.7188 259.3125 241.5 259.0938 241.2969 C 258.875 241.1094 258.5781 241 258.2031 241 L 254.3438 241 L 264.7969 265.7031 L 260.1719 276 L 263.4688 276 C 263.9375 276 264.2813 275.8906 264.5 275.6875 C 264.7188 275.4688 264.9219 275.2031 265.0781 274.8594 L 279.2031 241 L 279.2031 241 Z" fill="#ffffff"/>			<path d="M 288.5469 267 L 291.9063 267 C 292.4063 267 292.7344 266.7188 292.9219 266.125 L 298.5938 248.5156 C 298.7188 248.1406 298.8281 247.7344 298.9219 247.3281 C 299 246.9219 299.0781 246.5156 299.1719 246.1094 C 299.25 246.5156 299.3281 246.9063 299.4219 247.3125 C 299.5 247.7188 299.6094 248.1094 299.75 248.5 L 305.3438 266.125 C 305.5 266.7188 305.8125 267 306.25 267 L 309.7813 267 L 317.9688 241 L 314.625 241 C 314.3125 241 314.0313 241.0938 313.7969 241.2656 C 313.5625 241.4531 313.4063 241.6719 313.3281 241.9531 L 308.375 258.6875 C 308.2188 259.2188 308.0781 259.7969 307.9531 260.4063 C 307.8125 261.0313 307.7031 261.6094 307.625 262.1719 C 307.4844 261.6094 307.3438 261.0469 307.2031 260.4688 C 307.0625 259.8906 306.9063 259.2969 306.7188 258.6875 L 301.5 241.8906 C 301.4063 241.6406 301.2656 241.4375 301.0469 241.2656 C 300.8281 241.0938 300.5469 241 300.2188 241 L 298.2969 241 C 297.9844 241 297.7188 241.0938 297.5156 241.2656 C 297.2969 241.4375 297.1563 241.6406 297.0781 241.8906 L 291.7188 258.6875 C 291.5313 259.3125 291.3594 259.9063 291.2031 260.4688 C 291.0313 261.0469 290.875 261.625 290.75 262.2031 C 290.6563 261.625 290.5625 261.0469 290.4531 260.4688 C 290.3281 259.9063 290.2031 259.3125 290.0781 258.6875 L 285.2188 241.9531 C 285.125 241.7031 284.9688 241.4688 284.75 241.2813 C 284.5156 241.0938 284.2188 241 283.8438 241 L 280.3438 241 L 288.5469 267 L 288.5469 267 Z" fill="#ffffff"/>			<path d="M 322.1563 230 L 322.1563 267 L 326.5938 267 L 326.5938 230 L 322.1563 230 L 322.1563 230 Z" fill="#ffffff"/>		</g>	</g></svg>